PathFileType	4	(X/Y/Z)	Run_400 02
DataRate	CameraRate	NumFrames	NumMarkers	Units	OrigDataRate	OrigDataStartFrame	OrigNumFrames
100	100	4	42	mm	100	126	128
Frame#	Time	LASI			RASI			LPSI			RPSI			RTH1			RTH3			LTH1			LTH2			LTH3			RTB1			RTB2			LTB1			LTB2			RCAL			RTOE			LCAL			LTOE			LACR			RACR			CLAV			C7			RUA1			RUA2			RUA3			RLEL			RMEL			LUA1			LUA2			LUA3			LLEL			LMEL			RFAsuperior			RFAradius			RFAulna			LFAsuperior			LFAradius			LFAulna			RTH2			RTB3			RMT5			LMT5			LTB3			
		X1	Y1	Z1	X2	Y2	Z2	X3	Y3	Z3	X4	Y4	Z4	X5	Y5	Z5	X6	Y6	Z6	X7	Y7	Z7	X8	Y8	Z8	X9	Y9	Z9	X10	Y10	Z10	X11	Y11	Z11	X12	Y12	Z12	X13	Y13	Z13	X14	Y14	Z14	X15	Y15	Z15	X16	Y16	Z16	X17	Y17	Z17	X18	Y18	Z18	X19	Y19	Z19	X20	Y20	Z20	X21	Y21	Z21	X22	Y22	Z22	X23	Y23	Z23	X24	Y24	Z24	X25	Y25	Z25	X26	Y26	Z26	X27	Y27	Z27	X28	Y28	Z28	X29	Y29	Z29	X30	Y30	Z30	X31	Y31	Z31	X32	Y32	Z32	X33	Y33	Z33	X34	Y34	Z34	X35	Y35	Z35	X36	Y36	Z36	X37	Y37	Z37	X38	Y38	Z38	X39	Y39	Z39	X40	Y40	Z40	X41	Y41	Z41	X42	Y42	Z42	

123	1.41	778.613778	1020.904559	-453.468319	788.7622679999999	1054.192252	-212.786835	616.716754	1126.980138	-369.675941	615.523768	1126.695881	-284.921362	772.544566	939.681415	-140.574678	882.13632	729.234448	-171.863614	667.211238	921.915523	-508.744523	680.366593	788.902667	-490.660085	544.7751490000001	699.767161	-472.958129	963.547038	501.174896	-228.568826	886.947568	418.13717	-179.982241	467.846755	475.884417	-411.559302	364.84058	463.871805	-464.724413	730.1361900000001	218.903469	-265.40673	951.809606	147.783174	-257.821745	144.807288	342.01293	-349.011969	235.673251	129.441463	-371.669972	811.925161	1553.214013	-479.018528	732.927068	1561.809901	-154.82777	831.434536	1515.243222	-278.483296	713.784556	1592.208473	-344.431964	630.2968540000001	1501.07184	-85.70839599999999	547.233252	1458.790856	-129.552459	545.771522	1426.121458	-54.628751	486.330134	1346.691874	-28.228445	462.028885	1335.857824	-108.673638	803.392116	1454.483002	-583.049604	738.407406	1372.865452	-597.524777	800.286014	1345.858275	-638.504917	819.009545	1262.430958	-673.238329	762.645524	1217.139825	-636.2701530000001	525.8248170000001	1275.431038	-25.566579	696.265607	1174.22848	-80.826313	643.08326	1127.208885	-72.16015400000001	899.224928	1265.497908	-578.1283969999999	931.281662	1337.511918	-441.056905	953.272592	1272.489487	-442.293213	890.835244	849.2066620000001	-158.416708	888.396236	314.68677	-239.182899	911.750216	119.876683	-176.822757	170.626527	139.580491	-434.955376	317.245902	335.742042	-396.244931	
124	1.42	780.291704	1024.255174	-453.127743	788.746953	1055.487542	-212.295155	619.037812	1130.495686	-369.874431	616.571647	1129.927907	-284.882327	770.131501	937.410655	-139.758869	876.3829459999999	725.3796589999999	-173.659379	669.289434	925.641761	-508.393078	682.950975	791.718945	-490.129124	547.498303	702.464469	-474.959301	969.586797	497.861764	-227.99015	903.797497	406.683335	-178.895166	461.441212	481.994219	-413.058703	357.787806	476.474027	-466.012464	769.0190720000001	193.098934	-264.711266	995.960286	142.27111	-259.088659	129.321326	371.107716	-350.427987	205.750861	153.005335	-369.282373	812.7042750000001	1556.975416	-476.181884	733.932982	1564.082458	-152.732751	832.435209	1518.311762	-276.371028	714.4930450000001	1594.45939	-342.030991	630.674387	1504.942842	-83.66826399999999	547.577918	1462.160087	-128.605473	544.906519	1430.748998	-53.431929	484.719429	1351.76029	-26.885205	460.952985	1340.526765	-107.465248	805.684829	1459.319042	-581.0857109999999	740.656515	1377.813235	-596.702751	802.286058	1350.782651	-637.563764	820.895567	1267.372337	-672.754456	764.459488	1222.043112	-636.211737	524.468797	1280.797596	-23.934217	695.918256	1180.15915	-78.169697	642.835735	1132.987127	-70.311697	900.2921689999999	1270.5966	-577.116354	930.73526	1342.288359	-439.168682	952.43848	1277.524893	-438.473043	888.836665	846.517011	-156.793306	916.007246	304.105059	-238.70706	959.245627	108.823035	-178.328744	143.117372	167.091623	-434.534235	301.43213	352.64244	-396.437048	
125	1.43	782.083229	1026.913312	-452.472839	788.78424	1055.91271	-210.602488	621.1460939999999	1132.755107	-369.405725	617.085375	1131.5063	-283.893816	768.7020209999999	934.1065170000001	-139.439552	870.285377	719.692672	-174.234111	672.811544	928.00225	-508.045009	686.754203	793.431737	-488.889793	551.439426	703.85579	-476.520614	972.726506	493.442246	-227.896507	918.7547049999999	395.56195	-178.234035	456.921943	487.132617	-414.393291	353.115814	488.604573	-467.220385	806.7526779999999	170.344794	-264.28883	1036.864847	140.43457	-260.36429	117.266248	401.930248	-352.827591	177.466215	178.454955	-364.842357	813.034385	1559.705811	-473.756348	735.130946	1565.289861	-150.464917	833.3272480000001	1520.461883	-274.326362	715.268269	1595.868428	-339.438353	631.370619	1506.926661	-81.55152699999999	548.272193	1463.54524	-127.496529	544.639404	1433.424431	-52.162557	484.252117	1354.753488	-25.32928	460.854924	1342.910076	-106.004306	806.911205	1462.74503	-579.333419	741.741491	1381.426069	-595.869517	803.308646	1354.653106	-636.663845	821.78033	1271.340714	-672.338297	765.052996	1226.08997	-636.358746	524.276703	1284.076607	-22.101433	696.727179	1184.065391	-75.198194	643.592545	1136.636838	-68.198351	900.689643	1273.395434	-576.276804	930.662453	1343.627382	-437.316207	951.868534	1278.71653	-436.562405	887.261389	842.422971	-155.262469	941.0995799999999	294.966919	-238.543737	1004.450248	101.391033	-180.830166	117.122496	195.726101	-431.860059	287.677208	370.268426	-396.45008	
126	1.44	784.262357	1028.48869	-451.49995	789.377613	1055.247702	-208.477698	622.9968720000001	1133.574956	-368.649213	617.880845	1131.390857	-282.867759	768.65925	930.778013	-139.789999	863.385925	712.556718	-173.183438	677.474496	928.808863	-508.017873	691.377418	794.000585	-487.434542	556.2472760000001	703.880631	-477.449156	973.310268	488.317558	-227.990931	930.573399	385.540369	-177.895116	454.340425	491.107766	-415.16288	351.121766	499.795656	-468.393041	841.42953	151.417864	-264.1473	1072.815541	142.286431	-262.051589	109.116967	433.59433	-355.355593	151.812032	205.549918	-360.262673	813.032684	1561.381363	-471.796044	736.417829	1565.220131	-148.274406	834.156457	1521.366021	-272.511628	716.111837	1596.550037	-336.831799	632.262698	1507.037051	-79.48405	549.414385	1463.223335	-126.285008	545.043942	1434.092909	-50.836895	484.796706	1355.374403	-23.688246	461.715341	1342.99524	-104.36983	806.856267	1464.83593	-577.899532	741.484012	1383.872862	-594.99109	803.272856	1357.511118	-635.723836	821.611756	1274.295921	-671.913214	764.393209	1229.232564	-636.741515	525.1561359999999	1285.093329	-20.063566	698.522438	1185.726981	-72.021657	645.411916	1138.020099	-65.74279300000001	900.323894	1273.911591	-575.599891	931.069033	1341.53967	-435.510028	951.677811	1276.081134	-437.159673	885.137049	836.6301089999999	-154.32685	962.702942	287.702046	-238.36749	1045.289833	97.812236	-184.208066	92.909271	225.591445	-427.815008	276.307999	388.248229	-396.354587	
